FFmpeg version SVN-r25716, Copyright (c) 2000-2010 the FFmpeg developers  built on Nov 10 2010 12:23:18 with gcc 4.1.2 20080704 (Red Hat 4.1.2-48)  configuration: --enable-libmp3lame --enable-shared --disable-mmx --arch=x86_64  libavutil     50.33. 0 / 50.33. 0  libavcore      0.12. 1 /  0.12. 1  libavcodec    52.94. 4 / 52.94. 4  libavformat   52.84. 0 / 52.84. 0  libavdevice   52. 2. 2 / 52. 2. 2  libavfilter    1.59. 0 /  1.59. 0  libswscale     0.12. 0 /  0.12. 0Input #0, avi, from '/RAID10/data/converted_video_files/19326.avi':  Metadata:    encoder         : CanonMVI01  Duration: 00:02:59.99, start: 0.000000, bitrate: 1394 kb/s    Stream #0.0: Video: mjpeg, yuvj422p, 320x240, 15 tbr, 15 tbn, 15 tbc    Stream #0.1: Audio: pcm_u8, 11024 Hz, 1 channels, u8, 88 kb/s[buffer @ 0x26bcd40] w:320 h:240 pixfmt:yuvj422p[ffsink @ 0x26ca010] auto-inserting filter 'auto-inserted scaler 0' between the filter 'src' and the filter 'out'[scale @ 0x26ca330] w:320 h:240 fmt:yuvj422p -> w:320 h:240 fmt:yuv420p flags:0x4Output #0, flv, to '/RAID10/data/converted_video_files/19326.flv':  Metadata:    encoder         : Lavf52.84.0    Stream #0.0: Video: flv, yuv420p, 320x240, q=2-31, 600 kb/s, 1k tbn, 24 tbc    Stream #0.1: Audio: libmp3lame, 22050 Hz, 1 channels, s16, 96 kb/sStream mapping:  Stream #0.0 -> #0.0  Stream #0.1 -> #0.1Press [q] to stop encodingWarning, using s16 intermediate sample format for resamplingframe=   94 fps=  0 q=2.0 size=     389kB time=6.25 bitrate= 509.3kbits/s    frame=  184 fps=176 q=2.0 size=     763kB time=12.25 bitrate= 510.5kbits/s    frame=  270 fps=175 q=2.0 size=    1114kB time=17.96 bitrate= 508.0kbits/s    frame=  360 fps=176 q=2.0 size=    1475kB time=23.93 bitrate= 505.0kbits/s    frame=  445 fps=175 q=1.6 size=    1825kB time=29.62 bitrate= 504.6kbits/s    frame=  535 fps=176 q=2.0 size=    2186kB time=35.62 bitrate= 502.6kbits/s    frame=  625 fps=176 q=1.6 size=    2548kB time=41.62 bitrate= 501.5kbits/s    frame=  713 fps=176 q=2.0 size=    2897kB time=47.50 bitrate= 499.6kbits/s    frame=  801 fps=176 q=2.0 size=    3248kB time=53.38 bitrate= 498.5kbits/s    frame=  891 fps=176 q=2.0 size=    3616kB time=59.38 bitrate= 498.8kbits/s    frame=  975 fps=176 q=2.0 size=    3968kB time=64.96 bitrate= 500.4kbits/s    frame= 1065 fps=176 q=2.0 size=    4332kB time=70.92 bitrate= 500.4kbits/s    frame= 1154 fps=176 q=2.0 size=    4702kB time=76.92 bitrate= 500.8kbits/s    frame= 1215 fps=118 q=2.0 size=    4951kB time=80.96 bitrate= 501.0kbits/s    frame= 1282 fps=119 q=2.0 size=    5222kB time=85.42 bitrate= 500.9kbits/s    frame= 1364 fps=120 q=2.0 size=    5554kB time=90.92 bitrate= 500.4kbits/s    frame= 1443 fps=122 q=2.0 size=    5875kB time=96.17 bitrate= 500.5kbits/s    frame= 1530 fps=124 q=2.0 size=    6222kB time=101.93 bitrate= 500.0kbits/s    frame= 1620 fps=126 q=2.0 size=    6586kB time=107.94 bitrate= 499.9kbits/s    frame= 1709 fps=128 q=2.0 size=    6957kB time=113.92 bitrate= 500.3kbits/s    frame= 1797 fps=130 q=2.0 size=    7323kB time=119.75 bitrate= 500.9kbits/s    frame= 1882 fps=131 q=2.0 size=    7674kB time=125.42 bitrate= 501.3kbits/s    frame= 1972 fps=133 q=2.0 size=    8042kB time=131.42 bitrate= 501.3kbits/s    frame= 2061 fps=134 q=2.0 size=    8403kB time=137.38 bitrate= 501.1kbits/s    frame= 2148 fps=136 q=2.0 size=    8757kB time=143.17 bitrate= 501.1kbits/s    frame= 2234 fps=137 q=2.0 size=    9117kB time=148.92 bitrate= 501.5kbits/s    frame= 2320 fps=138 q=2.0 size=    9454kB time=154.62 bitrate= 500.9kbits/s    frame= 2409 fps=139 q=2.0 size=    9798kB time=160.58 bitrate= 499.9kbits/s    frame= 2496 fps=140 q=2.0 size=   10155kB time=166.38 bitrate= 500.0kbits/s    frame= 2584 fps=141 q=2.0 size=   10519kB time=172.25 bitrate= 500.3kbits/s    [mjpeg @ 0x26b6eb0] mjpeg_decode_dc: bad vlc: 0:0 (0x27c8480)[mjpeg @ 0x26b6eb0] error dc[mjpeg @ 0x26b6eb0] error y=20 x=2frame= 2641 fps=141 q=1.6 Lsize=   10771kB time=176.04 bitrate= 501.2kbits/s    video:8549kB audio:2075kB global headers:0kB muxing overhead 1.388241%